<svg id="visual" viewBox="0 0 960 540" width="960" height="540" xmlns="http://www.w3.org/2000/svg" xmlns:xlink="http://www.w3.org/1999/xlink" version="1.1"><rect x="0" y="0" width="960" height="540" fill="#001220"></rect><path d="M0 312L22.8 312.8C45.7 313.7 91.3 315.3 137 318.7C182.7 322 228.3 327 274 331.5C319.7 336 365.3 340 411.2 340.2C457 340.3 503 336.7 548.8 342.2C594.7 347.7 640.3 362.3 686 364.3C731.7 366.3 777.3 355.7 823 347.8C868.7 340 914.3 335 937.2 332.5L960 330L960 541L937.2 541C914.3 541 868.7 541 823 541C777.3 541 731.7 541 686 541C640.3 541 594.7 541 548.8 541C503 541 457 541 411.2 541C365.3 541 319.7 541 274 541C228.3 541 182.7 541 137 541C91.3 541 45.7 541 22.8 541L0 541Z" fill="#fa7268"></path><path d="M0 396L22.8 391.3C45.7 386.7 91.3 377.3 137 366.5C182.7 355.7 228.3 343.3 274 333.8C319.7 324.3 365.3 317.7 411.2 328.3C457 339 503 367 548.8 368C594.7 369 640.3 343 686 331.2C731.7 319.3 777.3 321.7 823 333.8C868.7 346 914.3 368 937.2 379L960 390L960 541L937.2 541C914.3 541 868.7 541 823 541C777.3 541 731.7 541 686 541C640.3 541 594.7 541 548.8 541C503 541 457 541 411.2 541C365.3 541 319.7 541 274 541C228.3 541 182.7 541 137 541C91.3 541 45.7 541 22.8 541L0 541Z" fill="#f16367"></path><path d="M0 352L22.8 361.5C45.7 371 91.3 390 137 388.7C182.7 387.3 228.3 365.7 274 356.3C319.7 347 365.3 350 411.2 364.5C457 379 503 405 548.8 418C594.7 431 640.3 431 686 421.5C731.7 412 777.3 393 823 384C868.7 375 914.3 376 937.2 376.5L960 377L960 541L937.2 541C914.3 541 868.7 541 823 541C777.3 541 731.7 541 686 541C640.3 541 594.7 541 548.8 541C503 541 457 541 411.2 541C365.3 541 319.7 541 274 541C228.3 541 182.7 541 137 541C91.3 541 45.7 541 22.8 541L0 541Z" fill="#e85467"></path><path d="M0 430L22.8 422.3C45.7 414.7 91.3 399.3 137 395.5C182.7 391.7 228.3 399.3 274 405.2C319.7 411 365.3 415 411.2 416C457 417 503 415 548.8 419.8C594.7 424.7 640.3 436.3 686 433C731.7 429.7 777.3 411.3 823 410.7C868.7 410 914.3 427 937.2 435.5L960 444L960 541L937.2 541C914.3 541 868.7 541 823 541C777.3 541 731.7 541 686 541C640.3 541 594.7 541 548.8 541C503 541 457 541 411.2 541C365.3 541 319.7 541 274 541C228.3 541 182.7 541 137 541C91.3 541 45.7 541 22.8 541L0 541Z" fill="#de4467"></path><path d="M0 439L22.8 441C45.7 443 91.3 447 137 455.3C182.7 463.7 228.3 476.3 274 475.7C319.7 475 365.3 461 411.2 456C457 451 503 455 548.8 460.3C594.7 465.7 640.3 472.3 686 470.8C731.7 469.3 777.3 459.7 823 455.2C868.7 450.7 914.3 451.3 937.2 451.7L960 452L960 541L937.2 541C914.3 541 868.7 541 823 541C777.3 541 731.7 541 686 541C640.3 541 594.7 541 548.8 541C503 541 457 541 411.2 541C365.3 541 319.7 541 274 541C228.3 541 182.7 541 137 541C91.3 541 45.7 541 22.8 541L0 541Z" fill="#d23467"></path><path d="M0 477L22.8 476.8C45.7 476.7 91.3 476.3 137 482.8C182.7 489.3 228.3 502.7 274 505C319.7 507.3 365.3 498.7 411.2 496.2C457 493.7 503 497.3 548.8 499.3C594.7 501.3 640.3 501.7 686 504.8C731.7 508 777.3 514 823 511.8C868.7 509.7 914.3 499.3 937.2 494.2L960 489L960 541L937.2 541C914.3 541 868.7 541 823 541C777.3 541 731.7 541 686 541C640.3 541 594.7 541 548.8 541C503 541 457 541 411.2 541C365.3 541 319.7 541 274 541C228.3 541 182.7 541 137 541C91.3 541 45.7 541 22.8 541L0 541Z" fill="#c62368"></path></svg>