<svg id="visual" viewBox="0 0 960 540" width="960" height="540" xmlns="http://www.w3.org/2000/svg" xmlns:xlink="http://www.w3.org/1999/xlink" version="1.1"><rect x="0" y="0" width="960" height="540" fill="#001220"></rect><path d="M0 226L22.8 225.2C45.7 224.3 91.3 222.7 137 219.3C182.7 216 228.3 211 274 206.5C319.7 202 365.3 198 411.2 197.8C457 197.7 503 201.3 548.8 195.8C594.7 190.3 640.3 175.7 686 173.7C731.7 171.7 777.3 182.3 823 190.2C868.7 198 914.3 203 937.2 205.5L960 208L960 0L937.2 0C914.3 0 868.7 0 823 0C777.3 0 731.7 0 686 0C640.3 0 594.7 0 548.8 0C503 0 457 0 411.2 0C365.3 0 319.7 0 274 0C228.3 0 182.7 0 137 0C91.3 0 45.7 0 22.8 0L0 0Z" fill="#fa7268"></path><path d="M0 142L22.8 146.7C45.7 151.3 91.3 160.7 137 171.5C182.7 182.3 228.3 194.7 274 204.2C319.7 213.7 365.3 220.3 411.2 209.7C457 199 503 171 548.8 170C594.7 169 640.3 195 686 206.8C731.7 218.7 777.3 216.3 823 204.2C868.7 192 914.3 170 937.2 159L960 148L960 0L937.2 0C914.3 0 868.7 0 823 0C777.3 0 731.7 0 686 0C640.3 0 594.7 0 548.8 0C503 0 457 0 411.2 0C365.3 0 319.7 0 274 0C228.3 0 182.7 0 137 0C91.3 0 45.7 0 22.8 0L0 0Z" fill="#f16367"></path><path d="M0 186L22.8 176.5C45.7 167 91.3 148 137 149.3C182.7 150.7 228.3 172.3 274 181.7C319.7 191 365.3 188 411.2 173.5C457 159 503 133 548.8 120C594.7 107 640.3 107 686 116.5C731.7 126 777.3 145 823 154C868.7 163 914.3 162 937.2 161.5L960 161L960 0L937.2 0C914.3 0 868.7 0 823 0C777.3 0 731.7 0 686 0C640.3 0 594.7 0 548.8 0C503 0 457 0 411.2 0C365.3 0 319.7 0 274 0C228.3 0 182.7 0 137 0C91.3 0 45.7 0 22.8 0L0 0Z" fill="#e85467"></path><path d="M0 108L22.8 115.7C45.7 123.3 91.3 138.7 137 142.5C182.7 146.3 228.3 138.7 274 132.8C319.7 127 365.3 123 411.2 122C457 121 503 123 548.8 118.2C594.7 113.3 640.3 101.7 686 105C731.7 108.3 777.3 126.7 823 127.3C868.7 128 914.3 111 937.2 102.5L960 94L960 0L937.2 0C914.3 0 868.7 0 823 0C777.3 0 731.7 0 686 0C640.3 0 594.7 0 548.8 0C503 0 457 0 411.2 0C365.3 0 319.7 0 274 0C228.3 0 182.7 0 137 0C91.3 0 45.7 0 22.8 0L0 0Z" fill="#de4467"></path><path d="M0 99L22.8 97C45.7 95 91.3 91 137 82.7C182.7 74.3 228.3 61.7 274 62.3C319.7 63 365.3 77 411.2 82C457 87 503 83 548.8 77.7C594.7 72.3 640.3 65.7 686 67.2C731.7 68.7 777.3 78.3 823 82.8C868.7 87.3 914.3 86.7 937.2 86.3L960 86L960 0L937.2 0C914.3 0 868.7 0 823 0C777.3 0 731.7 0 686 0C640.3 0 594.7 0 548.8 0C503 0 457 0 411.2 0C365.3 0 319.7 0 274 0C228.3 0 182.7 0 137 0C91.3 0 45.7 0 22.8 0L0 0Z" fill="#d23467"></path><path d="M0 61L22.8 61.2C45.7 61.3 91.3 61.7 137 55.2C182.7 48.7 228.3 35.3 274 33C319.7 30.7 365.3 39.3 411.2 41.8C457 44.3 503 40.7 548.8 38.7C594.7 36.7 640.3 36.3 686 33.2C731.7 30 777.3 24 823 26.2C868.7 28.3 914.3 38.7 937.2 43.8L960 49L960 0L937.2 0C914.3 0 868.7 0 823 0C777.3 0 731.7 0 686 0C640.3 0 594.7 0 548.8 0C503 0 457 0 411.2 0C365.3 0 319.7 0 274 0C228.3 0 182.7 0 137 0C91.3 0 45.7 0 22.8 0L0 0Z" fill="#c62368"></path></svg>